<?xml version="1.0" standalone="no"?>
<!DOCTYPE svg PUBLIC "-//W3C//DTD SVG 1.1//EN"
 "http://www.w3.org/Graphics/SVG/1.1/DTD/svg11.dtd">
<!-- Created with svg_stack (http://github.com/astraw/svg_stack) -->
<svg xmlns:sodipodi="http://sodipodi.sourceforge.net/DTD/sodipodi-0.dtd" xmlns="http://www.w3.org/2000/svg" version="1.1" width="124.0" height="71.0">
  <defs/>
  <g id="id0:id0" transform="matrix(1.25,0,0,1.25,0.0,0.0)"><g transform="translate(0.000000,56.800000) scale(0.040000,-0.040000)" fill="#ffffff" stroke="none">
<path d="M0 710 l0 -710 1240 0 1240 0 0 710 0 710 -716 0 -716 0 197 -195 196 -195 139 0 c91 0 141 -4 146 -11 5 -8 -84 -10 -332 -8 -223 3 -318 1 -279 -5 33 -5 187 -9 341 -10 239 -1 281 -3 276 -15 -4 -10 -1 -13 9 -9 15 6 15 13 -10 -207 -6 -44 -13 -100 -18 -125 -8 -45 -8 -45 -58 -53 -27 -4 -109 -11 -180 -15 -72 -5 -135 -11 -141 -15 -6 -3 -41 -7 -78 -8 -103 -3 -87 -16 22 -18 68 -1 92 2 82 9 -10 7 30 10 130 11 90 0 137 4 125 9 -15 6 -6 9 33 9 28 1 52 -3 52 -8 0 -10 -64 -19 -220 -32 -233 -19 -255 -21 -264 -30 -6 -5 88 -9 230 -9 137 0 245 -4 254 -10 10 -6 -82 -10 -270 -10 -173 0 -291 -4 -300 -10 -10 -7 85 -9 292 -8 169 2 300 0 291 -3 -12 -4 -13 -8 -5 -13 7 -4 16 -5 20 -2 4 2 6 -11 4 -30 -2 -19 0 -34 6 -34 6 0 12 15 14 33 3 27 5 29 13 13 10 -24 -7 -52 -30 -49 -23 2 -45 -20 -45 -46 0 -11 -5 -23 -10 -26 -13 -8 -13 -25 0 -25 6 0 10 7 10 16 0 8 4 12 10 9 6 -4 10 7 10 24 0 17 5 31 10 31 26 0 6 -49 -37 -94 -40 -40 -52 -47 -78 -43 -16 2 -38 -1 -47 -7 -13 -8 -21 -7 -30 2 -11 11 -9 16 6 28 23 16 46 18 46 4 0 -5 14 -10 30 -10 17 0 30 5 30 10 0 6 -10 10 -23 10 -41 0 -67 27 -67 71 0 24 -4 38 -10 34 -13 -8 -13 -75 0 -75 6 0 10 -5 10 -10 0 -7 -6 -7 -20 0 -11 6 -20 17 -20 25 0 8 -6 15 -12 15 -7 1 -78 1 -158 0 -142 -1 -145 -1 -163 -25 -10 -14 -26 -25 -34 -25 -13 0 -11 4 5 19 22 18 31 71 12 71 -5 0 -10 -13 -10 -28 0 -16 -9 -37 -21 -48 -17 -16 -18 -19 -5 -24 9 -3 -12 -5 -46 -5 -35 0 -55 1 -45 3 9 2 15 8 11 13 -3 5 -10 6 -16 3 -6 -4 -8 -2 -4 4 3 6 2 13 -3 16 -5 4 -12 -2 -14 -11 -3 -10 -2 5 0 32 3 28 10 55 15 62 7 8 3 22 -11 42 -12 16 -21 36 -21 45 0 18 18 52 38 74 22 24 13 26 -13 2 -14 -13 -25 -29 -25 -37 0 -7 -4 -13 -10 -13 -5 0 -10 -14 -10 -31 0 -17 4 -28 10 -24 6 3 10 -3 10 -14 0 -12 5 -21 10 -21 6 0 10 -7 10 -16 0 -8 -4 -12 -10 -9 -6 4 -10 -12 -10 -40 0 -28 -4 -44 -10 -40 -14 8 -13 68 1 82 9 9 6 19 -10 41 -24 34 -27 63 -9 91 10 16 -13 43 -195 225 l-207 206 0 206 c0 213 3 234 44 266 20 17 6 18 -291 18 l-313 0 0 -710z m1787 189 c-13 -128 -26 -236 -33 -262 -10 -44 -24 -42 -24 3 0 25 4 39 10 35 6 -4 10 27 10 85 0 58 4 89 10 85 6 -4 10 19 10 61 0 50 3 65 11 57 7 -7 9 -32 6 -64z m-989 -687 c2 -15 10 -22 26 -22 29 0 48 -22 45 -52 -1 -13 2 -31 6 -41 10 -24 -5 -38 -33 -31 -19 6 -21 11 -16 45 6 33 4 39 -10 39 -14 0 -17 -8 -14 -37 2 -32 0 -38 -22 -43 -14 -4 -31 -2 -37 3 -9 6 -18 5 -28 -3 -19 -15 -65 -5 -65 15 0 8 7 15 17 15 15 0 15 1 0 18 -10 10 -17 25 -17 33 0 39 61 54 80 20 13 -25 -4 -38 -25 -21 -8 7 -15 8 -15 3 0 -5 11 -15 25 -21 14 -6 25 -19 25 -27 0 -9 5 -13 10 -10 13 8 13 81 0 106 -14 25 -7 36 22 34 15 -1 24 -9 26 -23z m693 -19 c0 -27 2 -65 4 -85 2 -21 1 -39 -3 -41 -4 -2 -31 -1 -61 2 -55 6 -55 6 -55 41 -1 19 -5 35 -11 35 -5 0 -9 -16 -8 -37 1 -29 -2 -37 -19 -42 -33 -8 -37 0 -35 62 l2 57 52 3 c46 3 52 1 59 -20 5 -13 9 -34 9 -47 0 -13 6 -26 14 -29 11 -4 13 9 9 66 -6 77 -4 82 24 82 15 0 18 -8 19 -47z m-371 27 c0 -13 -50 -13 -70 0 -11 7 -4 10 28 10 23 0 42 -4 42 -10z m-142 -42 c9 -9 15 -9 24 0 7 7 31 12 54 12 33 0 47 -5 58 -22 28 -40 13 -91 -29 -100 -14 -3 -19 -11 -18 -26 2 -19 -2 -22 -32 -22 l-35 0 6 43 c3 23 7 52 10 64 2 12 0 25 -6 28 -6 4 -10 -6 -10 -22 -1 -61 -55 -89 -95 -49 -20 20 -24 32 -19 53 4 16 11 34 17 41 12 15 59 16 75 0z m292 2 c22 -14 19 -88 -4 -106 -22 -16 -65 -9 -83 14 -42 53 29 129 87 92z m287 -2 c6 -7 13 -34 16 -60 7 -49 7 -49 -35 -52 -9 -1 -13 16 -14 54 0 30 1 58 3 63 6 11 19 9 30 -5z m147 -13 c6 -11 12 -22 13 -24 2 -2 14 8 27 22 38 41 79 33 88 -18 2 -14 -3 -21 -19 -23 -13 -2 -23 -8 -23 -13 0 -5 8 -9 17 -7 10 2 19 -4 21 -13 2 -11 -6 -18 -25 -22 -36 -7 -59 6 -67 38 -9 36 -29 32 -21 -4 3 -16 3 -31 -2 -33 -4 -3 -32 -2 -61 1 l-53 6 -4 58 -3 58 50 -3 c39 -2 54 -8 62 -23z"/>
<path d="M1054 147 c-8 -21 1 -47 16 -47 19 0 23 31 7 48 -15 14 -17 14 -23 -1z"/>
<path d="M922 128 c2 -13 10 -23 18 -23 8 0 16 10 18 23 3 17 -2 22 -18 22 -16 0 -21 -5 -18 -22z"/>
<path d="M1216 145 c-6 -17 2 -45 14 -45 15 0 22 19 15 40 -8 24 -21 26 -29 5z"/>
<path d="M1642 123 c4 -39 28 -42 28 -4 0 21 -5 31 -16 31 -11 0 -14 -8 -12 -27z"/>
<path d="M704 1308 c-33 -16 -48 -55 -33 -90 9 -22 14 -26 25 -17 11 9 14 7 14 -7 1 -22 26 -53 58 -71 26 -15 92 -17 92 -3 0 6 -20 10 -44 10 -51 0 -81 21 -90 65 -4 19 -3 25 2 16 11 -15 27 3 17 19 -7 11 49 3 77 -11 9 -5 35 -9 58 -9 23 0 50 -5 60 -10 19 -10 46 -61 75 -145 5 -14 9 -16 12 -7 5 13 -2 33 -28 84 -5 10 -9 22 -9 28 0 31 -72 70 -130 70 -21 0 -42 5 -45 10 -3 6 -19 10 -36 10 -16 0 -29 5 -29 10 0 6 12 10 28 10 l27 1 -28 24 c-31 27 -41 29 -73 13z"/>
<path d="M878 1113 c6 -2 12 -11 12 -19 0 -8 4 -22 9 -32 5 -9 14 -30 21 -47 7 -16 16 -38 21 -47 5 -10 9 -27 9 -38 0 -11 5 -20 10 -20 6 0 10 -7 10 -15 0 -8 5 -24 10 -35 6 -11 15 -29 20 -40 6 -11 10 -27 10 -35 0 -8 4 -23 9 -33 5 -9 14 -30 21 -47 7 -16 16 -38 21 -47 5 -10 9 -25 9 -33 0 -8 5 -15 10 -15 12 0 13 15 1 38 -12 23 -26 60 -41 102 -7 19 -17 46 -22 60 -16 39 -30 73 -38 95 -4 11 -13 34 -20 50 -7 17 -17 41 -23 55 -5 14 -13 33 -18 42 -5 10 -9 26 -9 37 0 17 -20 32 -38 30 -4 0 -1 -3 6 -6z"/>
<path d="M1030 1015 c0 -8 5 -15 10 -15 6 0 10 7 10 15 0 8 -4 15 -10 15 -5 0 -10 -7 -10 -15z"/>
<path d="M1070 919 c0 -6 7 -9 15 -6 11 5 13 0 8 -23 -3 -19 -1 -30 6 -30 6 0 11 16 11 35 0 28 -4 35 -20 35 -11 0 -20 -5 -20 -11z"/>
<path d="M1170 895 c0 -19 5 -35 10 -35 6 0 10 16 10 35 0 19 -4 35 -10 35 -5 0 -10 -16 -10 -35z"/>
<path d="M1213 895 c-1 -19 3 -38 8 -41 5 -3 9 13 9 35 0 50 -16 55 -17 6z"/>
<path d="M1290 890 c0 -25 4 -39 10 -35 6 3 10 19 10 35 0 16 -4 32 -10 35 -6 4 -10 -10 -10 -35z"/>
<path d="M1330 895 c0 -19 5 -35 10 -35 6 0 10 16 10 35 0 19 -4 35 -10 35 -5 0 -10 -16 -10 -35z"/>
<path d="M1410 890 c0 -16 4 -30 8 -30 5 0 9 14 9 30 0 17 -4 30 -9 30 -4 0 -8 -13 -8 -30z"/>
<path d="M1510 890 c0 -16 5 -30 10 -30 6 0 10 14 10 30 0 17 -4 30 -10 30 -5 0 -10 -13 -10 -30z"/>
<path d="M1630 885 c0 -28 3 -32 20 -28 13 3 20 14 20 28 0 14 -7 25 -20 28 -17 4 -20 0 -20 -28z"/>
<path d="M1447 890 c-3 -11 -1 -23 4 -26 5 -3 9 6 9 20 0 31 -6 34 -13 6z"/>
<path d="M1553 885 c0 -14 3 -25 8 -25 5 0 9 11 9 25 0 14 -4 25 -9 25 -5 0 -8 -11 -8 -25z"/>
<path d="M1170 780 c0 -16 5 -30 10 -30 6 0 10 14 10 30 0 17 -4 30 -10 30 -5 0 -10 -13 -10 -30z"/>
<path d="M1213 780 c0 -16 4 -30 9 -30 4 0 8 14 8 30 0 17 -4 30 -8 30 -5 0 -9 -13 -9 -30z"/>
<path d="M1290 780 c0 -16 4 -30 8 -30 5 0 9 14 9 30 0 17 -4 30 -9 30 -4 0 -8 -13 -8 -30z"/>
<path d="M1330 780 c0 -16 5 -30 10 -30 6 0 10 14 10 30 0 17 -4 30 -10 30 -5 0 -10 -13 -10 -30z"/>
<path d="M1410 800 c0 -6 11 -10 25 -10 14 0 25 4 25 8 0 4 -11 9 -25 10 -14 1 -25 -3 -25 -8z"/>
<path d="M1510 780 c0 -16 5 -30 10 -30 6 0 10 14 10 30 0 17 -4 30 -10 30 -5 0 -10 -13 -10 -30z"/>
<path d="M1553 780 c0 -16 4 -30 9 -30 4 0 8 14 8 30 0 17 -4 30 -8 30 -5 0 -9 -13 -9 -30z"/>
<path d="M1630 780 c0 -16 5 -30 10 -30 6 0 10 11 10 24 0 13 6 27 13 29 6 3 2 6 -10 6 -19 1 -23 -4 -23 -29z"/>
<path d="M1410 761 c0 -5 13 -9 30 -9 16 1 27 5 24 10 -7 11 -54 10 -54 -1z"/>
<path d="M1170 676 c0 -13 6 -28 13 -34 10 -9 12 -4 9 23 -5 39 -22 48 -22 11z"/>
<path d="M1213 665 c1 -19 5 -35 9 -35 4 0 8 16 8 35 0 19 -4 35 -9 35 -5 0 -9 -16 -8 -35z"/>
<path d="M1290 669 c0 -17 4 -28 10 -24 6 3 10 17 10 31 0 13 -4 24 -10 24 -5 0 -10 -14 -10 -31z"/>
<path d="M1330 676 c0 -14 5 -28 10 -31 6 -4 10 7 10 24 0 17 -4 31 -10 31 -5 0 -10 -11 -10 -24z"/>
<path d="M1510 680 c0 -11 5 -20 10 -20 6 0 10 9 10 20 0 11 -4 20 -10 20 -5 0 -10 -9 -10 -20z"/>
<path d="M1556 691 c-4 -7 -5 -15 -2 -18 9 -9 19 4 14 18 -4 11 -6 11 -12 0z"/>
<path d="M1630 685 c0 -8 5 -15 10 -15 6 0 10 7 10 15 0 8 -4 15 -10 15 -5 0 -10 -7 -10 -15z"/>
<path d="M1410 670 c0 -15 7 -20 25 -20 19 0 25 5 24 23 0 12 -3 16 -6 10 -2 -7 -12 -13 -21 -13 -15 0 -15 2 -2 10 13 8 12 10 -2 10 -11 0 -18 -8 -18 -20z"/>
<path d="M1070 580 c-34 -29 -20 -34 15 -5 17 13 25 24 19 25 -6 0 -21 -9 -34 -20z"/>
<path d="M1127 499 c-36 -30 -47 -49 -27 -49 6 0 10 6 10 13 0 12 14 25 50 47 8 5 12 11 9 14 -3 3 -22 -8 -42 -25z"/>
<path d="M1180 340 c0 -6 63 -10 170 -10 107 0 170 4 170 10 0 6 -63 10 -170 10 -107 0 -170 -4 -170 -10z"/>
<path d="M1650 260 c0 -5 5 -10 10 -10 6 0 10 5 10 10 0 6 -4 10 -10 10 -5 0 -10 -4 -10 -10z"/>
</g>
</g>
  <g id="id1:id1" transform="matrix(1.25,0,0,1.25,0.0,0.0)"><g transform="translate(0.000000,56.800000) scale(0.040000,-0.040000)" fill="#fffdfc" stroke="none">
<path d="M604 1402 c-41 -32 -44 -53 -44 -266 l0 -206 207 -206 c182 -182 205 -209 195 -225 -18 -28 -15 -57 9 -91 16 -22 19 -32 10 -41 -12 -12 -15 -73 -3 -80 4 -3 7 14 7 36 0 31 4 41 14 39 11 -2 10 3 -3 23 -9 14 -14 30 -11 36 4 5 1 8 -7 7 -8 -2 -14 8 -16 26 -3 25 -1 28 19 23 16 -4 19 -3 10 6 -14 14 -15 41 -1 32 6 -3 10 1 10 9 0 10 7 13 20 11 25 -5 39 23 19 36 -11 7 -10 9 5 9 14 0 17 5 13 22 -4 13 0 29 8 38 13 15 13 17 0 17 -8 0 -15 -5 -15 -11 0 -6 -5 -3 -11 7 -12 21 6 51 25 40 6 -3 7 -2 3 2 -12 14 -37 15 -37 2 0 -7 -4 -6 -10 3 -5 8 -6 26 -3 39 4 16 2 22 -5 17 -16 -10 -24 11 -12 33 7 13 7 22 0 26 -5 3 -10 1 -10 -6 0 -10 -3 -10 -12 -1 -10 10 -10 17 0 32 7 12 8 21 2 25 -6 3 -10 0 -10 -7 0 -10 -3 -9 -9 1 -6 9 -6 22 1 34 9 17 8 19 -6 14 -21 -8 -33 18 -17 37 8 10 9 16 1 21 -5 3 -10 0 -10 -7 0 -8 -5 -6 -11 5 -8 13 -7 22 1 32 7 9 8 15 0 20 -5 3 -10 0 -10 -7 0 -8 -5 -6 -11 5 -8 13 -7 22 1 32 7 9 8 15 0 20 -5 3 -10 0 -10 -7 0 -8 -5 -6 -11 5 -7 13 -7 22 0 31 9 10 8 15 -4 20 -8 3 -15 2 -15 -3 0 -14 -44 -21 -75 -12 -17 5 -25 10 -19 10 6 1 11 8 11 16 0 11 -4 12 -11 5 -15 -15 -26 -12 -26 6 0 9 5 12 13 8 9 -6 9 -4 -1 8 -7 9 -22 15 -34 13 -17 -4 -19 0 -15 20 3 19 1 23 -8 15 -20 -17 -39 40 -24 73 23 50 82 57 119 13 11 -14 9 -16 -14 -16 -14 0 -26 -3 -26 -8 0 -4 21 -6 48 -5 26 1 39 0 29 -3 -9 -3 -15 -10 -12 -14 3 -5 17 -5 32 1 14 5 42 6 62 3 30 -6 32 -8 16 -15 -11 -4 -14 -8 -7 -8 8 -1 10 -6 6 -13 -6 -10 -4 -10 7 0 19 17 26 15 32 -9 4 -14 11 -20 21 -16 17 7 29 -16 14 -31 -6 -6 -6 -12 1 -16 6 -4 11 -2 11 5 0 10 3 10 11 2 8 -8 8 -17 0 -31 -7 -14 -8 -23 -1 -27 5 -3 10 0 10 7 0 8 5 5 11 -5 8 -14 8 -22 0 -30 -6 -6 -11 -16 -11 -22 0 -7 3 -7 8 0 4 7 46 8 117 5 l110 -7 -104 -1 c-57 -1 -101 -5 -98 -9 10 -9 666 -10 660 0 -2 4 -67 7 -143 7 l-139 0 -196 195 -197 195 -211 0 c-186 0 -215 -3 -233 -18z m436 -852 c0 -5 -2 -10 -4 -10 -3 0 -8 5 -11 10 -3 6 -1 10 4 10 6 0 11 -4 11 -10z"/>
<path d="M745 1230 c3 -5 8 -10 11 -10 2 0 4 5 4 10 0 6 -5 10 -11 10 -5 0 -7 -4 -4 -10z"/>
<path d="M1078 1003 c12 -2 32 -2 45 0 12 2 2 4 -23 4 -25 0 -35 -2 -22 -4z"/>
<path d="M1720 989 c0 -5 5 -7 10 -4 6 3 10 8 10 11 0 2 -4 4 -10 4 -5 0 -10 -5 -10 -11z"/>
<path d="M1778 930 c5 -47 -5 -93 -17 -86 -5 3 -6 -23 -4 -58 6 -66 -2 -120 -15 -112 -4 3 -8 -13 -7 -34 0 -21 3 -36 6 -34 10 6 19 51 30 149 19 171 21 197 12 206 -5 5 -7 -9 -5 -31z"/>
<path d="M1080 910 c-9 -6 -10 -10 -3 -10 6 0 15 5 18 10 8 12 4 12 -15 0z"/>
<path d="M1433 890 c0 -16 5 -30 10 -30 6 0 8 3 4 6 -3 3 -2 17 3 30 7 18 6 24 -4 24 -7 0 -13 -12 -13 -30z"/>
<path d="M1203 655 c-7 -8 -9 -16 -4 -19 5 -3 12 1 15 10 8 22 4 25 -11 9z"/>
<path d="M1078 603 c7 -3 16 -2 19 1 4 3 -2 6 -13 5 -11 0 -14 -3 -6 -6z"/>
<path d="M1615 559 c17 -6 16 -8 -9 -8 -16 -1 -27 -3 -24 -6 7 -7 118 6 118 14 0 3 -24 6 -53 7 -34 1 -45 -1 -32 -7z"/>
<path d="M1177 543 c-10 -10 -8 -33 3 -33 5 0 6 7 3 17 -5 12 -3 14 7 8 9 -5 11 -4 6 3 -8 14 -10 14 -19 5z"/>
<path d="M1360 541 c8 -6 11 -11 5 -11 -21 -2 -162 -20 -200 -27 -85 -14 11 -21 270 -20 l260 1 -245 6 c-303 6 -297 15 25 39 l100 8 -90 1 c-49 1 -101 5 -115 8 -20 4 -22 3 -10 -5z"/>
<path d="M1115 460 c-3 -6 1 -7 9 -4 18 7 21 14 7 14 -6 0 -13 -4 -16 -10z"/>
<path d="M1696 451 c-4 -5 3 -7 14 -4 23 6 26 13 6 13 -8 0 -17 -4 -20 -9z"/>
<path d="M1757 409 c4 -15 0 -27 -12 -35 -11 -8 -14 -14 -9 -14 26 0 46 51 25 64 -5 4 -7 -4 -4 -15z"/>
<path d="M1675 350 c3 -5 8 -10 11 -10 2 0 4 5 4 10 0 6 -5 10 -11 10 -5 0 -7 -4 -4 -10z"/>
<path d="M1718 323 c-2 -17 -8 -27 -16 -25 -8 1 -11 -1 -8 -6 7 -11 -32 -44 -44 -37 -6 4 -10 -3 -10 -14 0 -16 -6 -21 -25 -21 -14 0 -28 6 -31 14 -6 16 -41 13 -58 -4 -17 -17 10 -37 32 -24 9 6 31 9 47 7 26 -4 38 3 78 43 28 29 47 57 47 71 0 32 -8 29 -12 -4z"/>
<path d="M1187 313 c-3 -5 41 -7 96 -5 184 4 204 8 55 10 -81 1 -149 -1 -151 -5z"/>
<path d="M1498 313 c6 -2 12 -11 12 -18 0 -8 9 -19 20 -25 14 -7 20 -7 20 0 0 5 -7 10 -15 10 -8 0 -15 9 -15 20 0 13 -6 20 -17 19 -11 0 -13 -3 -5 -6z"/>
<path d="M1001 274 c0 -11 3 -14 6 -6 3 7 2 16 -1 19 -3 4 -6 -2 -5 -13z"/>
<path d="M1142 275 c-10 -12 -10 -15 1 -15 8 0 20 7 27 15 17 21 -10 20 -28 0z"/>
<path d="M1028 243 c7 -3 16 -2 19 1 4 3 -2 6 -13 5 -11 0 -14 -3 -6 -6z"/>
<path d="M1118 243 c7 -3 16 -2 19 1 4 3 -2 6 -13 5 -11 0 -14 -3 -6 -6z"/>
<path d="M744 229 c-3 -5 0 -17 6 -28 13 -25 13 -98 0 -106 -5 -3 -10 1 -10 10 0 8 -11 21 -25 27 -14 6 -25 16 -25 21 0 5 7 4 15 -3 21 -17 38 -4 25 21 -19 34 -80 19 -80 -20 0 -8 7 -23 17 -33 15 -17 15 -18 0 -18 -10 0 -17 -7 -17 -15 0 -20 46 -30 65 -15 10 8 19 9 28 3 6 -5 23 -7 37 -3 22 5 24 11 22 43 -3 29 0 37 14 37 14 0 16 -6 10 -39 -5 -34 -3 -39 16 -45 28 -7 43 7 33 31 -4 10 -7 28 -6 41 3 30 -16 52 -45 52 -16 0 -24 7 -26 22 -3 21 -43 34 -54 17z"/>
<path d="M1448 235 c-3 -3 -3 -38 0 -77 4 -57 2 -70 -9 -66 -8 3 -14 16 -14 29 0 13 -4 34 -9 47 -7 21 -13 23 -59 20 l-52 -3 -2 -57 c-2 -62 2 -70 35 -62 17 5 20 13 19 42 -1 21 3 37 8 37 6 0 10 -16 11 -35 0 -35 0 -35 55 -41 30 -3 57 -4 61 -2 4 2 5 20 3 41 -2 20 -4 58 -4 85 -1 39 -4 47 -19 47 -10 0 -21 -2 -24 -5z"/>
<path d="M1085 220 l-30 -8 33 -1 c17 0 32 4 32 9 0 6 -1 9 -2 9 -2 -1 -16 -5 -33 -9z"/>
<path d="M903 178 c-6 -7 -13 -25 -17 -41 -5 -21 -1 -33 19 -53 40 -40 94 -12 95 49 0 16 4 26 10 22 6 -3 8 -16 6 -28 -3 -12 -7 -41 -10 -64 l-6 -43 35 0 c30 0 34 3 32 22 -1 15 4 23 18 26 42 9 57 60 29 100 -11 17 -25 22 -58 22 -23 0 -47 -5 -54 -12 -9 -9 -15 -9 -24 0 -16 16 -63 15 -75 0z m184 -62 c-4 -9 -11 -16 -17 -16 -15 0 -24 26 -16 47 6 15 8 15 23 1 9 -9 13 -24 10 -32z m-129 12 c-2 -13 -10 -23 -18 -23 -8 0 -16 10 -18 23 -3 17 2 22 18 22 16 0 21 -5 18 -22z"/>
<path d="M1190 170 c-37 -37 -20 -92 31 -104 40 -9 64 15 64 64 0 25 -6 45 -15 50 -25 16 -59 11 -80 -10z m55 -30 c11 -33 -16 -57 -29 -25 -6 17 2 45 14 45 5 0 11 -9 15 -20z"/>
<path d="M1527 183 c-2 -5 -3 -33 -3 -63 1 -38 5 -55 14 -54 42 3 42 3 35 52 -6 46 -18 72 -34 72 -4 0 -10 -3 -12 -7z"/>
<path d="M1595 133 l4 -58 53 -6 c29 -3 57 -4 61 -1 5 2 5 17 2 33 -8 36 12 40 21 4 8 -32 31 -45 67 -38 19 4 27 11 25 22 -2 9 -11 15 -21 13 -9 -2 -17 2 -17 7 0 5 10 11 23 13 16 2 21 9 19 23 -9 51 -50 59 -88 18 -13 -14 -25 -24 -27 -22 -1 2 -7 13 -13 24 -8 15 -23 21 -62 23 l-50 3 3 -58z m75 -14 c0 -38 -24 -35 -28 4 -2 19 1 27 12 27 11 0 16 -10 16 -31z"/>
</g>
</g>
  <g id="id2:id2" transform="matrix(1.25,0,0,1.25,0.0,0.0)"><g transform="translate(0.000000,56.800000) scale(0.040000,-0.040000)" fill="#fef8f9" stroke="none">
<path d="M778 1253 c12 -2 32 -2 45 0 12 2 2 4 -23 4 -25 0 -35 -2 -22 -4z"/>
<path d="M845 1240 c-14 -6 -2 -9 40 -8 44 0 54 2 35 8 -33 10 -51 10 -75 0z"/>
<path d="M746 1211 c-10 -11 -16 -26 -13 -33 4 -9 6 -7 6 4 1 9 11 24 23 32 12 9 18 16 12 16 -6 0 -19 -9 -28 -19z"/>
<path d="M702 1180 c0 -14 2 -19 5 -12 2 6 2 18 0 25 -3 6 -5 1 -5 -13z"/>
<path d="M990 1169 c0 -11 4 -18 10 -14 5 3 7 12 3 20 -7 21 -13 19 -13 -6z"/>
<path d="M1010 1125 c1 -26 2 -28 11 -12 8 14 8 22 0 30 -8 8 -11 3 -11 -18z"/>
<path d="M787 1099 c19 -6 40 -5 55 0 18 8 12 10 -32 9 -50 0 -52 -1 -23 -9z"/>
<path d="M875 1090 c-3 -5 -1 -18 4 -27 9 -15 10 -14 9 10 -3 30 -4 32 -13 17z"/>
<path d="M1030 1084 c0 -12 7 -37 15 -55 8 -19 14 -26 15 -16 0 15 12 17 103 19 l102 1 -110 7 c-126 8 -118 7 -110 20 3 5 1 18 -4 27 -9 16 -10 16 -11 -3z"/>
<path d="M895 1040 c-3 -5 -1 -18 4 -27 9 -16 10 -14 11 10 0 28 -5 34 -15 17z"/>
<path d="M1373 1013 c64 -2 170 -2 235 0 64 1 11 3 -118 3 -129 0 -182 -2 -117 -3z"/>
<path d="M915 990 c-3 -5 -1 -18 4 -27 9 -16 10 -14 11 10 0 28 -5 34 -15 17z"/>
<path d="M1773 910 c0 -30 2 -43 4 -27 2 15 2 39 0 55 -2 15 -4 2 -4 -28z"/>
<path d="M933 934 c-3 -8 -1 -20 6 -27 8 -8 11 -4 11 16 0 30 -7 35 -17 11z"/>
<path d="M1190 920 c0 -5 5 -10 10 -10 6 0 10 5 10 10 0 6 -4 10 -10 10 -5 0 -10 -4 -10 -10z"/>
<path d="M1310 910 c0 -5 5 -10 10 -10 6 0 10 5 10 10 0 6 -4 10 -10 10 -5 0 -10 -4 -10 -10z"/>
<path d="M1402 890 c0 -19 2 -27 5 -17 2 9 2 25 0 35 -3 9 -5 1 -5 -18z"/>
<path d="M1530 900 c0 -5 5 -10 11 -10 5 0 7 5 4 10 -3 6 -8 10 -11 10 -2 0 -4 -4 -4 -10z"/>
<path d="M957 887 c-3 -8 -1 -20 4 -28 6 -10 9 -7 9 14 0 29 -5 35 -13 14z"/>
<path d="M1420 890 c0 -5 5 -10 10 -10 6 0 10 5 10 10 0 6 -4 10 -10 10 -5 0 -10 -4 -10 -10z"/>
<path d="M1190 876 c0 -9 5 -16 10 -16 6 0 10 4 10 9 0 6 -4 13 -10 16 -5 3 -10 -1 -10 -9z"/>
<path d="M1310 870 c0 -5 5 -10 10 -10 6 0 10 5 10 10 0 6 -4 10 -10 10 -5 0 -10 -4 -10 -10z"/>
<path d="M1530 870 c0 -5 5 -10 10 -10 6 0 10 5 10 10 0 6 -4 10 -10 10 -5 0 -10 -4 -10 -10z"/>
<path d="M973 834 c-3 -8 -1 -20 6 -27 8 -8 11 -4 11 16 0 30 -7 35 -17 11z"/>
<path d="M1753 755 c0 -38 2 -53 4 -32 2 20 2 52 0 70 -2 17 -4 1 -4 -38z"/>
<path d="M1190 801 c0 -5 6 -12 13 -15 10 -5 10 -7 0 -12 -15 -7 -17 -24 -4 -24 13 0 21 27 15 45 -7 16 -24 21 -24 6z"/>
<path d="M1306 795 c-6 -18 2 -45 15 -45 13 0 11 17 -3 24 -10 5 -10 7 0 12 14 7 16 24 3 24 -5 0 -11 -7 -15 -15z"/>
<path d="M996 783 c-4 -9 -2 -21 4 -27 7 -7 10 -2 10 17 0 31 -5 34 -14 10z"/>
<path d="M1453 793 c-17 -6 -17 -20 0 -26 8 -3 13 3 13 14 0 11 0 19 -1 18 0 0 -6 -3 -12 -6z"/>
<path d="M1016 734 c-3 -9 -2 -23 4 -32 7 -14 9 -10 10 16 0 35 -5 41 -14 16z"/>
<path d="M1420 696 c0 -2 11 -6 25 -8 13 -3 22 -1 19 3 -5 9 -44 13 -44 5z"/>
<path d="M1035 680 c-3 -5 -1 -18 4 -27 9 -16 10 -14 11 10 0 28 -5 34 -15 17z"/>
<path d="M1190 680 c0 -5 5 -10 10 -10 6 0 10 5 10 10 0 6 -4 10 -10 10 -5 0 -10 -4 -10 -10z"/>
<path d="M1402 670 c0 -14 2 -19 5 -12 2 6 2 18 0 25 -3 6 -5 1 -5 -13z"/>
<path d="M1310 656 c0 -2 7 -7 16 -10 8 -3 12 -2 9 4 -6 10 -25 14 -25 6z"/>
<path d="M1732 635 c0 -16 2 -22 5 -12 2 9 2 23 0 30 -3 6 -5 -1 -5 -18z"/>
<path d="M1058 634 c-4 -4 -5 -17 -2 -30 4 -16 1 -23 -13 -26 -14 -3 -12 -5 9 -9 19 -4 25 -2 21 8 -3 7 1 13 8 13 10 0 11 3 3 8 -7 4 -13 15 -15 25 -2 11 -7 15 -11 11z"/>
<path d="M1538 573 c6 -2 18 -2 25 0 6 3 1 5 -13 5 -14 0 -19 -2 -12 -5z"/>
<path d="M1643 563 c9 -2 25 -2 35 0 9 3 1 5 -18 5 -19 0 -27 -2 -17 -5z"/>
<path d="M1288 553 c6 -2 18 -2 25 0 6 3 1 5 -13 5 -14 0 -19 -2 -12 -5z"/>
<path d="M1428 543 c28 -2 76 -2 105 0 28 2 5 3 -53 3 -58 0 -81 -1 -52 -3z"/>
<path d="M1185 521 c3 -5 -3 -12 -12 -14 -10 -2 -4 -2 12 1 17 3 57 8 90 12 l60 7 -78 1 c-46 1 -76 -2 -72 -7z"/>
<path d="M981 504 c0 -11 3 -14 6 -6 3 7 2 16 -1 19 -3 4 -6 -2 -5 -13z"/>
<path d="M1107 475 c3 -8 9 -12 14 -9 12 7 11 11 -5 17 -10 4 -13 1 -9 -8z"/>
<path d="M1147 478 c2 -5 129 -7 281 -6 309 2 284 6 -60 10 -124 2 -224 0 -221 -4z"/>
<path d="M962 455 c0 -16 2 -22 5 -12 2 9 2 23 0 30 -3 6 -5 -1 -5 -18z"/>
<path d="M1302 443 c70 -2 187 -2 260 0 73 1 16 3 -127 3 -143 0 -203 -2 -133 -3z"/>
<path d="M1752 400 c0 -14 2 -19 5 -12 2 6 2 18 0 25 -3 6 -5 1 -5 -13z"/>
<path d="M983 325 c0 -22 2 -30 4 -17 2 12 2 30 0 40 -3 9 -5 -1 -4 -23z"/>
<path d="M1235 353 c146 -7 293 -7 288 0 -2 4 -82 6 -176 5 -95 -1 -145 -3 -112 -5z"/>
<path d="M1712 325 c0 -16 2 -22 5 -12 2 9 2 23 0 30 -3 6 -5 -1 -5 -18z"/>
<path d="M1172 310 c-1 -22 0 -23 9 -7 9 15 28 17 174 17 162 0 164 0 168 -22 4 -20 4 -20 6 4 l1 27 -178 3 -178 3 -2 -25z"/>
<path d="M1063 223 c9 -2 25 -2 35 0 9 3 1 5 -18 5 -19 0 -27 -2 -17 -5z"/>
<path d="M1603 223 c9 -2 23 -2 30 0 6 3 -1 5 -18 5 -16 0 -22 -2 -12 -5z"/>
</g>
</g>
  <g id="id3:id3" transform="matrix(1.25,0,0,1.25,0.0,0.0)"><g transform="translate(0.000000,56.800000) scale(0.040000,-0.040000)" fill="#fceef3" stroke="none">
<path d="M888 1203 c7 -3 16 -2 19 1 4 3 -2 6 -13 5 -11 0 -14 -3 -6 -6z"/>
<path d="M1598 983 c23 -2 59 -2 80 0 20 2 1 4 -43 4 -44 0 -61 -2 -37 -4z"/>
<path d="M1742 915 c0 -16 2 -22 5 -12 2 9 2 23 0 30 -3 6 -5 -1 -5 -18z"/>
<path d="M1662 906 c7 -8 15 -12 17 -11 5 6 -10 25 -20 25 -5 0 -4 -6 3 -14z"/>
<path d="M1112 885 c0 -16 2 -22 5 -12 2 9 2 23 0 30 -3 6 -5 -1 -5 -18z"/>
<path d="M1190 901 c0 -6 5 -13 10 -16 6 -3 10 1 10 9 0 9 -4 16 -10 16 -5 0 -10 -4 -10 -9z"/>
<path d="M1572 885 c0 -16 2 -22 5 -12 2 9 2 23 0 30 -3 6 -5 -1 -5 -18z"/>
<path d="M1310 890 c0 -5 5 -10 10 -10 6 0 10 5 10 10 0 6 -4 10 -10 10 -5 0 -10 -4 -10 -10z"/>
<path d="M1461 883 c-1 -12 -7 -24 -13 -26 -10 -4 -10 -6 0 -6 15 -1 26 23 19 41 -3 7 -6 3 -6 -9z"/>
<path d="M1408 853 c7 -3 16 -2 19 1 4 3 -2 6 -13 5 -11 0 -14 -3 -6 -6z"/>
<path d="M1571 794 c0 -11 3 -14 6 -6 3 7 2 16 -1 19 -3 4 -6 -2 -5 -13z"/>
<path d="M1654 785 c-3 -8 -4 -20 -2 -27 3 -7 7 -1 10 15 6 29 1 36 -8 12z"/>
<path d="M1190 780 c0 -5 5 -10 10 -10 6 0 10 5 10 10 0 6 -4 10 -10 10 -5 0 -10 -4 -10 -10z"/>
<path d="M1310 780 c0 -5 5 -10 10 -10 6 0 10 5 10 10 0 6 -4 10 -10 10 -5 0 -10 -4 -10 -10z"/>
<path d="M1530 780 c0 -5 5 -10 10 -10 6 0 10 5 10 10 0 6 -4 10 -10 10 -5 0 -10 -4 -10 -10z"/>
<path d="M1722 740 c0 -14 2 -19 5 -12 2 6 2 18 0 25 -3 6 -5 1 -5 -13z"/>
<path d="M1310 670 c0 -5 5 -10 10 -10 6 0 10 5 10 10 0 6 -4 10 -10 10 -5 0 -10 -4 -10 -10z"/>
<path d="M1461 664 c0 -11 3 -14 6 -6 3 7 2 16 -1 19 -3 4 -6 -2 -5 -13z"/>
<path d="M1190 660 c0 -5 5 -10 10 -10 6 0 10 5 10 10 0 6 -4 10 -10 10 -5 0 -10 -4 -10 -10z"/>
<path d="M1493 573 c9 -2 23 -2 30 0 6 3 -1 5 -18 5 -16 0 -22 -2 -12 -5z"/>
<path d="M1243 553 c9 -2 23 -2 30 0 6 3 -1 5 -18 5 -16 0 -22 -2 -12 -5z"/>
<path d="M1130 480 c0 -5 5 -10 11 -10 5 0 7 5 4 10 -3 6 -8 10 -11 10 -2 0 -4 -4 -4 -10z"/>
<path d="M991 454 c0 -11 3 -14 6 -6 3 7 2 16 -1 19 -3 4 -6 -2 -5 -13z"/>
<path d="M1113 443 c15 -2 37 -2 50 0 12 2 0 4 -28 4 -27 0 -38 -2 -22 -4z"/>
<path d="M1021 393 c7 -12 15 -20 18 -17 3 2 -3 12 -13 22 -17 16 -18 16 -5 -5z"/>
</g>
</g>
  <g id="id4:id4" transform="matrix(1.25,0,0,1.25,0.0,0.0)"><g transform="translate(0.000000,56.800000) scale(0.040000,-0.040000)" fill="#fadee8" stroke="none">
<path d="M818 1133 c7 -3 16 -2 19 1 4 3 -2 6 -13 5 -11 0 -14 -3 -6 -6z"/>
<path d="M1073 993 c15 -2 39 -2 55 0 15 2 2 4 -28 4 -30 0 -43 -2 -27 -4z"/>
<path d="M1478 983 c18 -2 45 -2 60 0 15 2 0 4 -33 4 -33 0 -45 -2 -27 -4z"/>
<path d="M1230 892 l5 -47 3 39 c2 21 0 42 -5 47 -4 4 -6 -13 -3 -39z"/>
<path d="M1283 890 c0 -25 2 -35 4 -22 2 12 2 32 0 45 -2 12 -4 2 -4 -23z"/>
<path d="M1428 923 c6 -2 18 -2 25 0 6 3 1 5 -13 5 -14 0 -19 -2 -12 -5z"/>
<path d="M1622 885 c0 -16 2 -22 5 -12 2 9 2 23 0 30 -3 6 -5 -1 -5 -18z"/>
<path d="M1671 874 c0 -11 3 -14 6 -6 3 7 2 16 -1 19 -3 4 -6 -2 -5 -13z"/>
<path d="M1220 813 c5 -2 10 -17 10 -33 0 -16 -5 -31 -10 -33 -6 -3 -5 -4 2 -3 8 2 13 17 13 36 0 19 -5 34 -13 36 -7 1 -8 0 -2 -3z"/>
<path d="M1284 806 c-9 -22 0 -59 14 -62 7 -1 8 0 2 3 -14 7 -12 60 3 66 9 4 9 6 -1 6 -7 1 -15 -5 -18 -13z"/>
<path d="M1625 809 c-11 -16 -1 -19 13 -3 7 8 8 14 3 14 -5 0 -13 -5 -16 -11z"/>
<path d="M1722 780 c0 -14 2 -19 5 -12 2 6 2 18 0 25 -3 6 -5 1 -5 -13z"/>
<path d="M1167 749 c7 -7 15 -10 18 -7 3 3 -2 9 -12 12 -14 6 -15 5 -6 -5z"/>
<path d="M1164 695 c-3 -8 -4 -20 -1 -27 3 -7 6 -3 6 9 1 12 7 24 14 26 9 4 9 6 -1 6 -7 1 -15 -6 -18 -14z"/>
<path d="M1217 703 c6 -4 13 -24 16 -43 4 -34 4 -33 3 4 -1 26 -6 41 -16 43 -10 3 -11 2 -3 -4z"/>
<path d="M1287 703 c-10 -9 -9 -61 1 -67 5 -3 6 9 4 26 -3 19 1 33 9 39 8 5 9 9 3 9 -6 0 -14 -3 -17 -7z"/>
<path d="M1397 649 c7 -7 15 -10 18 -7 3 3 -2 9 -12 12 -14 6 -15 5 -6 -5z"/>
<path d="M1568 583 c7 -3 16 -2 19 1 4 3 -2 6 -13 5 -11 0 -14 -3 -6 -6z"/>
<path d="M1433 573 c9 -2 25 -2 35 0 9 3 1 5 -18 5 -19 0 -27 -2 -17 -5z"/>
<path d="M1318 563 c7 -3 16 -2 19 1 4 3 -2 6 -13 5 -11 0 -14 -3 -6 -6z"/>
<path d="M1034 528 l-19 -23 23 19 c21 18 27 26 19 26 -2 0 -12 -10 -23 -22z"/>
<path d="M1550 296 c0 -2 8 -10 18 -17 15 -13 16 -12 3 4 -13 16 -21 21 -21 13z"/>
<path d="M1608 253 c7 -3 16 -2 19 1 4 3 -2 6 -13 5 -11 0 -14 -3 -6 -6z"/>
</g>
</g>
  <g id="id5:id5" transform="matrix(1.25,0,0,1.25,0.0,0.0)"><g transform="translate(0.000000,56.800000) scale(0.040000,-0.040000)" fill="#f6cbda" stroke="none">
<path d="M1027 999 c7 -7 15 -10 18 -7 3 3 -2 9 -12 12 -14 6 -15 5 -6 -5z"/>
<path d="M1368 983 c18 -2 45 -2 60 0 15 2 0 4 -33 4 -33 0 -45 -2 -27 -4z"/>
<path d="M1163 895 c0 -22 2 -30 4 -17 2 12 2 30 0 40 -3 9 -5 -1 -4 -23z"/>
<path d="M1353 895 c0 -22 2 -30 4 -17 2 12 2 30 0 40 -3 9 -5 -1 -4 -23z"/>
<path d="M1392 890 c0 -19 2 -27 5 -17 2 9 2 25 0 35 -3 9 -5 1 -5 -18z"/>
<path d="M1501 904 c0 -11 3 -14 6 -6 3 7 2 16 -1 19 -3 4 -6 -2 -5 -13z"/>
<path d="M1122 885 c0 -16 2 -22 5 -12 2 9 2 23 0 30 -3 6 -5 -1 -5 -18z"/>
<path d="M1428 813 c7 -3 16 -2 19 1 4 3 -2 6 -13 5 -11 0 -14 -3 -6 -6z"/>
<path d="M1162 785 c0 -16 2 -22 5 -12 2 9 2 23 0 30 -3 6 -5 -1 -5 -18z"/>
<path d="M1352 780 c0 -19 2 -27 5 -17 2 9 2 25 0 35 -3 9 -5 1 -5 -18z"/>
<path d="M1391 784 c0 -11 3 -14 6 -6 3 7 2 16 -1 19 -3 4 -6 -2 -5 -13z"/>
<path d="M1115 780 c3 -5 8 -10 11 -10 2 0 4 5 4 10 0 6 -5 10 -11 10 -5 0 -7 -4 -4 -10z"/>
<path d="M1658 767 c-3 -19 -2 -25 4 -19 6 6 8 18 6 28 -3 14 -5 12 -10 -9z"/>
<path d="M1428 743 c7 -3 16 -2 19 1 4 3 -2 6 -13 5 -11 0 -14 -3 -6 -6z"/>
<path d="M1428 703 c7 -3 16 -2 19 1 4 3 -2 6 -13 5 -11 0 -14 -3 -6 -6z"/>
<path d="M1538 703 c7 -3 16 -2 19 1 4 3 -2 6 -13 5 -11 0 -14 -3 -6 -6z"/>
<path d="M1352 675 c0 -16 2 -22 5 -12 2 9 2 23 0 30 -3 6 -5 -1 -5 -18z"/>
<path d="M1501 674 c0 -11 3 -14 6 -6 3 7 2 16 -1 19 -3 4 -6 -2 -5 -13z"/>
<path d="M1428 643 c6 -2 18 -2 25 0 6 3 1 5 -13 5 -14 0 -19 -2 -12 -5z"/>
<path d="M1177 629 c7 -7 15 -10 18 -7 3 3 -2 9 -12 12 -14 6 -15 5 -6 -5z"/>
<path d="M1638 593 c6 -2 18 -2 25 0 6 3 1 5 -13 5 -14 0 -19 -2 -12 -5z"/>
<path d="M1388 573 c6 -2 18 -2 25 0 6 3 1 5 -13 5 -14 0 -19 -2 -12 -5z"/>
<path d="M1089 483 c-13 -16 -12 -17 4 -4 16 13 21 21 13 21 -2 0 -10 -8 -17 -17z"/>
<path d="M1308 433 c67 -2 177 -2 245 0 67 1 12 3 -123 3 -135 0 -190 -2 -122 -3z"/>
<path d="M1263 363 c48 -2 125 -2 170 0 45 1 6 3 -88 3 -93 0 -130 -2 -82 -3z"/>
<path d="M1538 363 c7 -3 16 -2 19 1 4 3 -2 6 -13 5 -11 0 -14 -3 -6 -6z"/>
<path d="M1678 363 c7 -3 16 -2 19 1 4 3 -2 6 -13 5 -11 0 -14 -3 -6 -6z"/>
<path d="M1011 324 c0 -11 3 -14 6 -6 3 7 2 16 -1 19 -3 4 -6 -2 -5 -13z"/>
</g>
</g>
  <g id="id6:id6" transform="matrix(1.25,0,0,1.25,0.0,0.0)"><g transform="translate(0.000000,56.800000) scale(0.040000,-0.040000)" fill="#f4bbce" stroke="none">
<path d="M778 1213 c7 -3 16 -2 19 1 4 3 -2 6 -13 5 -11 0 -14 -3 -6 -6z"/>
<path d="M1303 983 c9 -2 23 -2 30 0 6 3 -1 5 -18 5 -16 0 -22 -2 -12 -5z"/>
<path d="M1668 973 c7 -3 16 -2 19 1 4 3 -2 6 -13 5 -11 0 -14 -3 -6 -6z"/>
<path d="M1731 894 c0 -11 3 -14 6 -6 3 7 2 16 -1 19 -3 4 -6 -2 -5 -13z"/>
<path d="M1001 454 c0 -11 3 -14 6 -6 3 7 2 16 -1 19 -3 4 -6 -2 -5 -13z"/>
<path d="M1168 433 c7 -3 16 -2 19 1 4 3 -2 6 -13 5 -11 0 -14 -3 -6 -6z"/>
<path d="M1158 363 c7 -3 16 -2 19 1 4 3 -2 6 -13 5 -11 0 -14 -3 -6 -6z"/>
</g>
</g>
  <g id="id7:id7" transform="matrix(1.25,0,0,1.25,0.0,0.0)"><g transform="translate(0.000000,56.800000) scale(0.040000,-0.040000)" fill="#f0a7c1" stroke="none">
<path d="M1183 983 c15 -2 37 -2 50 0 12 2 0 4 -28 4 -27 0 -38 -2 -22 -4z"/>
<path d="M1638 973 c7 -3 16 -2 19 1 4 3 -2 6 -13 5 -11 0 -14 -3 -6 -6z"/>
<path d="M1308 933 c6 -2 18 -2 25 0 6 3 1 5 -13 5 -14 0 -19 -2 -12 -5z"/>
<path d="M1650 926 c0 -2 9 -6 20 -9 11 -3 18 -1 14 4 -5 9 -34 13 -34 5z"/>
<path d="M1471 904 c0 -11 3 -14 6 -6 3 7 2 16 -1 19 -3 4 -6 -2 -5 -13z"/>
<path d="M1413 843 c9 -2 25 -2 35 0 9 3 1 5 -18 5 -19 0 -27 -2 -17 -5z"/>
<path d="M1648 843 c7 -3 16 -2 19 1 4 3 -2 6 -13 5 -11 0 -14 -3 -6 -6z"/>
<path d="M1472 675 c0 -16 2 -22 5 -12 2 9 2 23 0 30 -3 6 -5 -1 -5 -18z"/>
<path d="M1318 633 c6 -2 18 -2 25 0 6 3 1 5 -13 5 -14 0 -19 -2 -12 -5z"/>
<path d="M1498 583 c7 -3 16 -2 19 1 4 3 -2 6 -13 5 -11 0 -14 -3 -6 -6z"/>
<path d="M1248 563 c7 -3 16 -2 19 1 4 3 -2 6 -13 5 -11 0 -14 -3 -6 -6z"/>
<path d="M1123 433 c9 -2 23 -2 30 0 6 3 -1 5 -18 5 -16 0 -22 -2 -12 -5z"/>
<path d="M1589 333 c-13 -16 -12 -17 4 -4 16 13 21 21 13 21 -2 0 -10 -8 -17 -17z"/>
<path d="M1627 323 c-4 -3 -7 -11 -7 -17 0 -6 5 -5 12 2 6 6 9 14 7 17 -3 3 -9 2 -12 -2z"/>
</g>
</g>
  <g id="id8:id8" transform="matrix(1.25,0,0,1.25,0.0,0.0)"><g transform="translate(0.000000,56.800000) scale(0.040000,-0.040000)" fill="#ed91b0" stroke="none">
<path d="M1083 983 c15 -2 39 -2 55 0 15 2 2 4 -28 4 -30 0 -43 -2 -27 -4z"/>
<path d="M1548 973 c7 -3 16 -2 19 1 4 3 -2 6 -13 5 -11 0 -14 -3 -6 -6z"/>
<path d="M1598 973 c6 -2 18 -2 25 0 6 3 1 5 -13 5 -14 0 -19 -2 -12 -5z"/>
<path d="M1413 933 c9 -2 23 -2 30 0 6 3 -1 5 -18 5 -16 0 -22 -2 -12 -5z"/>
<path d="M1243 890 c0 -25 2 -35 4 -22 2 12 2 32 0 45 -2 12 -4 2 -4 -23z"/>
<path d="M1273 890 c0 -25 2 -35 4 -22 2 12 2 32 0 45 -2 12 -4 2 -4 -23z"/>
<path d="M1131 874 c0 -11 3 -14 6 -6 3 7 2 16 -1 19 -3 4 -6 -2 -5 -13z"/>
<path d="M1132 790 c0 -14 2 -19 5 -12 2 6 2 18 0 25 -3 6 -5 1 -5 -13z"/>
<path d="M1242 780 c0 -19 2 -27 5 -17 2 9 2 25 0 35 -3 9 -5 1 -5 -18z"/>
<path d="M1272 780 c0 -19 2 -27 5 -17 2 9 2 25 0 35 -3 9 -5 1 -5 -18z"/>
<path d="M1218 713 c7 -3 16 -2 19 1 4 3 -2 6 -13 5 -11 0 -14 -3 -6 -6z"/>
<path d="M1288 713 c7 -3 16 -2 19 1 4 3 -2 6 -13 5 -11 0 -14 -3 -6 -6z"/>
<path d="M1408 713 c7 -3 16 -2 19 1 4 3 -2 6 -13 5 -11 0 -14 -3 -6 -6z"/>
<path d="M1550 716 c0 -2 9 -6 20 -9 11 -3 18 -1 14 4 -5 9 -34 13 -34 5z"/>
<path d="M1243 665 c0 -22 2 -30 4 -17 2 12 2 30 0 40 -3 9 -5 -1 -4 -23z"/>
<path d="M1272 670 c0 -19 2 -27 5 -17 2 9 2 25 0 35 -3 9 -5 1 -5 -18z"/>
<path d="M1568 593 c7 -3 16 -2 19 1 4 3 -2 6 -13 5 -11 0 -14 -3 -6 -6z"/>
<path d="M1468 583 c7 -3 16 -2 19 1 4 3 -2 6 -13 5 -11 0 -14 -3 -6 -6z"/>
<path d="M1318 573 c7 -3 16 -2 19 1 4 3 -2 6 -13 5 -11 0 -14 -3 -6 -6z"/>
<path d="M1208 563 c6 -2 18 -2 25 0 6 3 1 5 -13 5 -14 0 -19 -2 -12 -5z"/>
<path d="M1039 523 c-13 -16 -12 -17 4 -4 16 13 21 21 13 21 -2 0 -10 -8 -17 -17z"/>
<path d="M1073 313 c9 -2 23 -2 30 0 6 3 -1 5 -18 5 -16 0 -22 -2 -12 -5z"/>
<path d="M1560 296 c0 -2 8 -10 18 -17 15 -13 16 -12 3 4 -13 16 -21 21 -21 13z"/>
</g>
</g>
  <g id="id9:id9" transform="matrix(1.25,0,0,1.25,0.0,0.0)"><g transform="translate(0.000000,56.800000) scale(0.040000,-0.040000)" fill="#e979a0" stroke="none">
<path d="M1473 973 c15 -2 37 -2 50 0 12 2 0 4 -28 4 -27 0 -38 -2 -22 -4z"/>
<path d="M1587 909 c4 -13 8 -18 11 -10 2 7 -1 18 -6 23 -8 8 -9 4 -5 -13z"/>
<path d="M1613 885 c0 -22 2 -30 4 -17 2 12 2 30 0 40 -3 9 -5 -1 -4 -23z"/>
<path d="M1612 780 c0 -19 2 -27 5 -17 2 9 2 25 0 35 -3 9 -5 1 -5 -18z"/>
<path d="M1152 680 c0 -14 2 -19 5 -12 2 6 2 18 0 25 -3 6 -5 1 -5 -13z"/>
<path d="M1610 681 c0 -11 4 -22 9 -25 4 -3 6 6 3 19 -5 30 -12 33 -12 6z"/>
<path d="M1538 643 c6 -2 18 -2 25 0 6 3 1 5 -13 5 -14 0 -19 -2 -12 -5z"/>
<path d="M1438 583 c7 -3 16 -2 19 1 4 3 -2 6 -13 5 -11 0 -14 -3 -6 -6z"/>
<path d="M1079 483 c-13 -16 -12 -17 4 -4 16 13 21 21 13 21 -2 0 -10 -8 -17 -17z"/>
<path d="M1302 423 c70 -2 187 -2 260 0 73 1 16 3 -127 3 -143 0 -203 -2 -133 -3z"/>
<path d="M1238 373 c61 -2 163 -2 225 0 61 1 11 3 -113 3 -124 0 -174 -2 -112 -3z"/>
<path d="M1668 373 c6 -2 18 -2 25 0 6 3 1 5 -13 5 -14 0 -19 -2 -12 -5z"/>
<path d="M1625 339 c-4 -6 -5 -12 -2 -15 2 -3 7 2 10 11 7 17 1 20 -8 4z"/>
<path d="M1055 330 c3 -5 8 -10 11 -10 2 0 4 5 4 10 0 6 -5 10 -11 10 -5 0 -7 -4 -4 -10z"/>
<path d="M1070 296 c7 -7 13 -7 20 0 6 6 3 10 -10 10 -13 0 -16 -4 -10 -10z"/>
</g>
</g>
  <g id="id10:id10" transform="matrix(1.25,0,0,1.25,0.0,0.0)"><g transform="translate(0.000000,56.800000) scale(0.040000,-0.040000)" fill="#e56793" stroke="none">
<path d="M1383 973 c15 -2 37 -2 50 0 12 2 0 4 -28 4 -27 0 -38 -2 -22 -4z"/>
<path d="M1068 943 c12 -2 30 -2 40 0 9 3 -1 5 -23 4 -22 0 -30 -2 -17 -4z"/>
<path d="M1538 933 c6 -2 18 -2 25 0 6 3 1 5 -13 5 -14 0 -19 -2 -12 -5z"/>
<path d="M1153 890 c0 -25 2 -35 4 -22 2 12 2 32 0 45 -2 12 -4 2 -4 -23z"/>
<path d="M1250 920 c0 -5 5 -10 11 -10 5 0 7 5 4 10 -3 6 -8 10 -11 10 -2 0 -4 -4 -4 -10z"/>
<path d="M1363 890 c0 -25 2 -35 4 -22 2 12 2 32 0 45 -2 12 -4 2 -4 -23z"/>
<path d="M1205 830 c-17 -8 -17 -9 7 -7 15 1 24 5 22 9 -3 4 -6 8 -7 7 -1 0 -11 -4 -22 -9z"/>
<path d="M1286 831 c-3 -4 6 -8 20 -9 13 -1 24 0 24 2 0 7 -40 14 -44 7z"/>
<path d="M1545 830 c-17 -8 -17 -9 7 -7 15 1 24 5 22 9 -3 4 -6 8 -7 7 -1 0 -11 -4 -22 -9z"/>
<path d="M1618 822 c-11 -13 -11 -14 2 -7 8 5 23 8 33 7 23 -4 22 4 -3 11 -11 3 -25 -2 -32 -11z"/>
<path d="M1418 823 c12 -2 30 -2 40 0 9 3 -1 5 -23 4 -22 0 -30 -2 -17 -4z"/>
<path d="M1151 794 c0 -11 3 -14 6 -6 3 7 2 16 -1 19 -3 4 -6 -2 -5 -13z"/>
<path d="M1250 800 c0 -5 5 -10 10 -10 6 0 10 5 10 10 0 6 -4 10 -10 10 -5 0 -10 -4 -10 -10z"/>
<path d="M1362 780 c0 -19 2 -27 5 -17 2 9 2 25 0 35 -3 9 -5 1 -5 -18z"/>
<path d="M1250 760 c0 -5 5 -10 10 -10 6 0 10 5 10 10 0 6 -4 10 -10 10 -5 0 -10 -4 -10 -10z"/>
<path d="M1183 733 c9 -2 23 -2 30 0 6 3 -1 5 -18 5 -16 0 -22 -2 -12 -5z"/>
<path d="M1308 733 c6 -2 18 -2 25 0 6 3 1 5 -13 5 -14 0 -19 -2 -12 -5z"/>
<path d="M1418 733 c12 -2 30 -2 40 0 9 3 -1 5 -23 4 -22 0 -30 -2 -17 -4z"/>
<path d="M1533 733 c9 -2 25 -2 35 0 9 3 1 5 -18 5 -19 0 -27 -2 -17 -5z"/>
<path d="M1362 670 c0 -19 2 -27 5 -17 2 9 2 25 0 35 -3 9 -5 1 -5 -18z"/>
<path d="M1518 593 c7 -3 16 -2 19 1 4 3 -2 6 -13 5 -11 0 -14 -3 -6 -6z"/>
<path d="M1408 583 c7 -3 16 -2 19 1 4 3 -2 6 -13 5 -11 0 -14 -3 -6 -6z"/>
<path d="M1268 573 c7 -3 16 -2 19 1 4 3 -2 6 -13 5 -11 0 -14 -3 -6 -6z"/>
<path d="M1011 454 c0 -11 3 -14 6 -6 3 7 2 16 -1 19 -3 4 -6 -2 -5 -13z"/>
<path d="M1116 342 c-3 -5 1 -9 9 -9 8 0 12 4 9 9 -3 4 -7 8 -9 8 -2 0 -6 -4 -9 -8z"/>
<path d="M1606 288 c3 -5 10 -6 15 -3 13 9 11 12 -6 12 -8 0 -12 -4 -9 -9z"/>
</g>
</g>
  <g id="id11:id11" transform="matrix(1.25,0,0,1.25,0.0,0.0)"><g transform="translate(0.000000,56.800000) scale(0.040000,-0.040000)" fill="#e25384" stroke="none">
<path d="M1283 973 c9 -2 23 -2 30 0 6 3 -1 5 -18 5 -16 0 -22 -2 -12 -5z"/>
<path d="M1338 973 c7 -3 16 -2 19 1 4 3 -2 6 -13 5 -11 0 -14 -3 -6 -6z"/>
<path d="M1663 963 c9 -2 25 -2 35 0 9 3 1 5 -18 5 -19 0 -27 -2 -17 -5z"/>
<path d="M1145 929 c-4 -6 -5 -12 -2 -15 2 -3 7 2 10 11 7 17 1 20 -8 4z"/>
<path d="M1598 890 c2 -22 11 -45 21 -52 13 -10 14 -10 4 2 -7 8 -13 29 -13 46 0 18 -3 35 -8 38 -4 2 -6 -13 -4 -34z"/>
<path d="M1493 885 c0 -22 2 -30 4 -17 2 12 2 30 0 40 -3 9 -5 -1 -4 -23z"/>
<path d="M1250 880 c0 -16 5 -30 10 -30 6 0 10 14 10 30 0 17 -4 30 -10 30 -5 0 -10 -13 -10 -30z"/>
<path d="M1120 840 c-9 -6 -10 -10 -3 -10 6 0 15 5 18 10 8 12 4 12 -15 0z"/>
<path d="M1386 835 c3 -6 22 -9 47 -6 46 4 42 8 -14 13 -23 2 -35 0 -33 -7z"/>
<path d="M1152 820 c-17 -28 -15 -64 6 -83 10 -10 23 -17 28 -17 4 0 -1 7 -13 15 -22 15 -28 61 -10 83 5 7 8 14 6 17 -3 2 -10 -5 -17 -15z"/>
<path d="M1188 833 c6 -2 18 -2 25 0 6 3 1 5 -13 5 -14 0 -19 -2 -12 -5z"/>
<path d="M1308 833 c6 -2 18 -2 25 0 6 3 1 5 -13 5 -14 0 -19 -2 -12 -5z"/>
<path d="M1350 834 c0 -5 7 -18 15 -28 8 -11 15 -16 15 -10 0 5 -7 18 -15 28 -8 11 -15 16 -15 10z"/>
<path d="M1506 832 c-3 -5 8 -6 25 -4 16 2 29 6 29 8 0 8 -49 4 -54 -4z"/>
<path d="M1640 836 c0 -2 9 -6 20 -9 11 -3 20 -1 20 4 0 5 -9 9 -20 9 -11 0 -20 -2 -20 -4z"/>
<path d="M1488 780 c-3 -16 -1 -30 4 -30 4 0 8 14 8 30 0 17 -2 30 -4 30 -2 0 -6 -13 -8 -30z"/>
<path d="M1602 780 c0 -19 2 -27 5 -17 2 9 2 25 0 35 -3 9 -5 1 -5 -18z"/>
<path d="M1250 780 c0 -5 5 -10 10 -10 6 0 10 5 10 10 0 6 -4 10 -10 10 -5 0 -10 -4 -10 -10z"/>
<path d="M1353 743 c-12 -13 -19 -23 -14 -23 10 0 46 39 40 43 -2 2 -14 -7 -26 -20z"/>
<path d="M1397 729 c7 -7 15 -10 18 -7 3 3 -2 9 -12 12 -14 6 -15 5 -6 -5z"/>
<path d="M1507 729 c7 -7 15 -10 18 -7 3 3 -2 9 -12 12 -14 6 -15 5 -6 -5z"/>
<path d="M1565 730 c-16 -7 -17 -9 -3 -9 9 -1 20 4 23 9 7 11 7 11 -20 0z"/>
<path d="M1627 729 c7 -7 15 -10 18 -7 3 3 -2 9 -12 12 -14 6 -15 5 -6 -5z"/>
<path d="M1220 723 c8 -3 21 -13 28 -22 12 -15 14 -15 23 2 6 9 18 17 27 18 11 0 12 2 4 6 -7 3 -19 -1 -28 -8 -11 -9 -18 -9 -26 -1 -7 7 -19 12 -27 11 -14 0 -14 -1 -1 -6z"/>
<path d="M1366 697 c3 -10 9 -15 12 -12 3 3 0 11 -7 18 -10 9 -11 8 -5 -6z"/>
<path d="M1595 681 c0 -15 5 -28 11 -28 6 0 9 11 6 24 -6 33 -17 36 -17 4z"/>
<path d="M1492 680 c0 -14 2 -19 5 -12 2 6 2 18 0 25 -3 6 -5 1 -5 -13z"/>
<path d="M1252 655 c1 -13 7 -26 13 -29 7 -2 10 7 7 25 -5 35 -23 39 -20 4z"/>
<path d="M1691 644 c0 -11 3 -14 6 -6 3 7 2 16 -1 19 -3 4 -6 -2 -5 -13z"/>
<path d="M1438 633 c7 -3 16 -2 19 1 4 3 -2 6 -13 5 -11 0 -14 -3 -6 -6z"/>
<path d="M1328 623 c7 -3 16 -2 19 1 4 3 -2 6 -13 5 -11 0 -14 -3 -6 -6z"/>
<path d="M1188 613 c7 -3 16 -2 19 1 4 3 -2 6 -13 5 -11 0 -14 -3 -6 -6z"/>
<path d="M1638 603 c6 -2 18 -2 25 0 6 3 1 5 -13 5 -14 0 -19 -2 -12 -5z"/>
<path d="M1113 423 c9 -2 25 -2 35 0 9 3 1 5 -18 5 -19 0 -27 -2 -17 -5z"/>
<path d="M1062 290 c7 -11 16 -20 20 -20 15 0 8 15 -12 28 -19 12 -20 11 -8 -8z"/>
<path d="M1600 280 c0 -6 7 -10 15 -10 8 0 15 2 15 4 0 2 -7 6 -15 10 -8 3 -15 1 -15 -4z"/>
</g>
</g>
  <g id="id12:id12" transform="matrix(1.25,0,0,1.25,0.0,0.0)"><g transform="translate(0.000000,56.800000) scale(0.040000,-0.040000)" fill="#df3e76" stroke="none">
<path d="M818 1193 c7 -3 16 -2 19 1 4 3 -2 6 -13 5 -11 0 -14 -3 -6 -6z"/>
<path d="M868 1143 c7 -3 16 -2 19 1 4 3 -2 6 -13 5 -11 0 -14 -3 -6 -6z"/>
<path d="M1178 973 c17 -2 47 -2 65 0 17 2 3 4 -33 4 -36 0 -50 -2 -32 -4z"/>
<path d="M1583 963 c15 -2 37 -2 50 0 12 2 0 4 -28 4 -27 0 -38 -2 -22 -4z"/>
<path d="M1240 940 c8 -5 20 -10 25 -10 6 0 3 5 -5 10 -8 5 -19 10 -25 10 -5 0 -3 -5 5 -10z"/>
<path d="M1298 943 c12 -2 30 -2 40 0 9 3 -1 5 -23 4 -22 0 -30 -2 -17 -4z"/>
<path d="M1721 934 c0 -11 3 -14 6 -6 3 7 2 16 -1 19 -3 4 -6 -2 -5 -13z"/>
<path d="M1366 928 c3 -5 10 -6 15 -3 13 9 11 12 -6 12 -8 0 -12 -4 -9 -9z"/>
<path d="M1478 894 c2 -25 11 -49 20 -56 15 -12 16 -11 3 4 -7 10 -12 32 -9 53 2 19 -1 36 -7 38 -6 3 -9 -12 -7 -39z"/>
<path d="M1650 936 c0 -2 11 -6 25 -8 13 -3 22 -1 19 3 -5 9 -44 13 -44 5z"/>
<path d="M1141 894 c0 -11 3 -14 6 -6 3 7 2 16 -1 19 -3 4 -6 -2 -5 -13z"/>
<path d="M1247 844 c-4 -4 -7 -12 -7 -18 0 -6 5 -4 10 4 9 13 11 13 21 0 9 -12 10 -12 7 -1 -5 17 -21 25 -31 15z"/>
<path d="M1586 841 c-3 -5 1 -14 8 -20 10 -9 16 -9 21 -1 4 6 3 10 -2 9 -20 -3 -27 2 -13 11 9 6 10 10 3 10 -6 0 -14 -4 -17 -9z"/>
<path d="M1477 802 c7 -47 10 -49 15 -14 2 16 -2 34 -8 40 -10 9 -11 4 -7 -26z"/>
<path d="M1116 738 c3 -5 13 -7 22 -6 10 2 16 -3 14 -10 -1 -8 2 -11 9 -7 8 5 8 10 0 18 -13 13 -52 17 -45 5z"/>
<path d="M1379 737 c15 -19 1 -30 -18 -14 -14 11 -14 10 -2 -6 11 -13 17 -15 27 -6 11 9 11 15 3 25 -6 8 -14 14 -16 14 -3 0 0 -6 6 -13z"/>
<path d="M1469 733 c-13 -17 -13 -17 6 -3 11 8 22 16 24 17 2 2 0 3 -6 3 -6 0 -17 -8 -24 -17z"/>
<path d="M1609 737 c15 -19 1 -30 -18 -14 -14 11 -14 10 -2 -6 11 -13 17 -15 27 -6 11 9 11 15 3 25 -6 8 -14 14 -16 14 -3 0 0 -6 6 -13z"/>
<path d="M1480 675 c0 -20 -5 -35 -12 -35 -6 0 -9 -2 -6 -5 15 -15 34 9 34 40 -1 46 -16 45 -16 0z"/>
<path d="M1359 633 c-12 -16 -12 -17 2 -6 9 7 20 9 24 5 5 -4 5 -1 1 6 -9 16 -11 15 -27 -5z"/>
<path d="M1628 643 c7 -3 16 -2 19 1 4 3 -2 6 -13 5 -11 0 -14 -3 -6 -6z"/>
<path d="M1218 613 c7 -3 16 -2 19 1 4 3 -2 6 -13 5 -11 0 -14 -3 -6 -6z"/>
<path d="M1583 603 c9 -2 25 -2 35 0 9 3 1 5 -18 5 -19 0 -27 -2 -17 -5z"/>
<path d="M1468 593 c7 -3 16 -2 19 1 4 3 -2 6 -13 5 -11 0 -14 -3 -6 -6z"/>
<path d="M1333 583 c9 -2 25 -2 35 0 9 3 1 5 -18 5 -19 0 -27 -2 -17 -5z"/>
<path d="M1208 573 c6 -2 18 -2 25 0 6 3 1 5 -13 5 -14 0 -19 -2 -12 -5z"/>
<path d="M1049 523 c-13 -16 -12 -17 4 -4 16 13 21 21 13 21 -2 0 -10 -8 -17 -17z"/>
<path d="M1068 363 c7 -3 16 -2 19 1 4 3 -2 6 -13 5 -11 0 -14 -3 -6 -6z"/>
<path d="M1580 349 c-17 -13 -18 -17 -5 -10 33 17 51 31 40 31 -5 0 -21 -10 -35 -21z"/>
<path d="M1026 335 c-3 -8 -1 -15 4 -15 6 0 10 7 10 15 0 8 -2 15 -4 15 -2 0 -6 -7 -10 -15z"/>
<path d="M1110 346 c0 -2 8 -10 18 -17 15 -13 16 -12 3 4 -13 16 -21 21 -21 13z"/>
<path d="M1653 333 c4 -3 1 -13 -6 -22 -11 -14 -10 -14 5 -2 16 12 16 31 1 31 -4 0 -3 -3 0 -7z"/>
</g>
</g>
  <g id="id13:id13" transform="matrix(1.25,0,0,1.25,0.0,0.0)"><g transform="translate(0.000000,56.800000) scale(0.040000,-0.040000)" fill="#da2463" stroke="none">
<path d="M908 1173 c7 -3 16 -2 19 1 4 3 -2 6 -13 5 -11 0 -14 -3 -6 -6z"/>
<path d="M778 1163 c7 -3 16 -2 19 1 4 3 -2 6 -13 5 -11 0 -14 -3 -6 -6z"/>
<path d="M908 1132 c9 -10 19 -17 21 -16 6 5 -20 34 -30 34 -5 0 -1 -8 9 -18z"/>
<path d="M1073 973 c15 -2 39 -2 55 0 15 2 2 4 -28 4 -30 0 -43 -2 -27 -4z"/>
<path d="M1483 963 c15 -2 39 -2 55 0 15 2 2 4 -28 4 -30 0 -43 -2 -27 -4z"/>
<path d="M1258 943 c7 -3 16 -2 19 1 4 3 -2 6 -13 5 -11 0 -14 -3 -6 -6z"/>
<path d="M1408 943 c12 -2 30 -2 40 0 9 3 -1 5 -23 4 -22 0 -30 -2 -17 -4z"/>
<path d="M1598 933 c7 -3 16 -2 19 1 4 3 -2 6 -13 5 -11 0 -14 -3 -6 -6z"/>
<path d="M1691 874 c0 -11 3 -14 6 -6 3 7 2 16 -1 19 -3 4 -6 -2 -5 -13z"/>
<path d="M1711 854 c0 -11 3 -14 6 -6 3 7 2 16 -1 19 -3 4 -6 -2 -5 -13z"/>
<path d="M1136 842 c-3 -6 -1 -14 5 -17 15 -10 25 3 12 16 -7 7 -13 7 -17 1z"/>
<path d="M1365 839 c-10 -15 3 -25 16 -12 7 7 7 13 1 17 -6 3 -14 1 -17 -5z"/>
<path d="M1480 836 c0 -9 5 -16 10 -16 6 0 10 4 10 9 0 6 -4 13 -10 16 -5 3 -10 -1 -10 -9z"/>
<path d="M1250 830 c0 -5 5 -10 10 -10 6 0 10 5 10 10 0 6 -4 10 -10 10 -5 0 -10 -4 -10 -10z"/>
<path d="M1595 830 c4 -6 11 -8 16 -5 14 9 11 15 -7 15 -8 0 -12 -5 -9 -10z"/>
<path d="M1681 824 c0 -11 3 -14 6 -6 3 7 2 16 -1 19 -3 4 -6 -2 -5 -13z"/>
<path d="M1245 731 c-7 -12 12 -24 25 -16 11 7 4 25 -10 25 -5 0 -11 -4 -15 -9z"/>
<path d="M1362 731 c4 -13 18 -16 19 -4 0 4 -5 9 -11 12 -7 2 -11 -2 -8 -8z"/>
<path d="M1477 734 c-8 -8 1 -24 14 -24 5 0 9 7 9 15 0 15 -12 20 -23 9z"/>
<path d="M1592 731 c4 -13 18 -16 19 -4 0 4 -5 9 -11 12 -7 2 -11 -2 -8 -8z"/>
<path d="M1691 694 c0 -11 3 -14 6 -6 3 7 2 16 -1 19 -3 4 -6 -2 -5 -13z"/>
<path d="M1598 643 c7 -3 16 -2 19 1 4 3 -2 6 -13 5 -11 0 -14 -3 -6 -6z"/>
<path d="M1365 631 c-2 -4 10 -8 26 -9 16 -1 29 -1 29 2 0 7 -50 13 -55 7z"/>
<path d="M1488 633 c7 -3 16 -2 19 1 4 3 -2 6 -13 5 -11 0 -14 -3 -6 -6z"/>
<path d="M1538 633 c6 -2 18 -2 25 0 6 3 1 5 -13 5 -14 0 -19 -2 -12 -5z"/>
<path d="M1258 613 c12 -2 30 -2 40 0 9 3 -1 5 -23 4 -22 0 -30 -2 -17 -4z"/>
<path d="M1533 603 c9 -2 23 -2 30 0 6 3 -1 5 -18 5 -16 0 -22 -2 -12 -5z"/>
<path d="M1428 593 c6 -2 18 -2 25 0 6 3 1 5 -13 5 -14 0 -19 -2 -12 -5z"/>
<path d="M1288 583 c6 -2 18 -2 25 0 6 3 1 5 -13 5 -14 0 -19 -2 -12 -5z"/>
<path d="M1022 455 c0 -16 2 -22 5 -12 2 9 2 23 0 30 -3 6 -5 -1 -5 -18z"/>
<path d="M1051 444 c0 -11 3 -14 6 -6 3 7 2 16 -1 19 -3 4 -6 -2 -5 -13z"/>
<path d="M1434 413 c249 -3 268 -5 261 -21 -5 -13 -3 -14 6 -5 29 29 -3 33 -269 31 l-267 -3 269 -2z"/>
<path d="M1061 384 c0 -11 3 -14 6 -6 3 7 2 16 -1 19 -3 4 -6 -2 -5 -13z"/>
<path d="M1337 383 c219 -3 242 -5 246 -21 4 -12 5 -11 6 6 l1 22 -247 -2 -248 -3 242 -2z"/>
<path d="M1640 373 c0 -11 3 -14 8 -7 4 6 14 14 22 17 10 4 8 6 -7 6 -16 1 -23 -5 -23 -16z"/>
<path d="M1097 359 c7 -7 15 -10 18 -7 3 3 -2 9 -12 12 -14 6 -15 5 -6 -5z"/>
<path d="M1040 349 c0 -5 5 -7 10 -4 6 3 10 8 10 11 0 2 -4 4 -10 4 -5 0 -10 -5 -10 -11z"/>
<path d="M1564 329 c-3 -6 -1 -16 5 -22 8 -8 11 -5 11 11 0 24 -5 28 -16 11z"/>
<path d="M1650 301 c0 -7 -4 -9 -10 -6 -5 3 -10 1 -10 -4 0 -6 4 -11 9 -11 13 0 25 20 17 27 -3 4 -6 1 -6 -6z"/>
<path d="M1585 290 c-3 -5 -1 -10 4 -10 6 0 11 5 11 10 0 6 -2 10 -4 10 -3 0 -8 -4 -11 -10z"/>
</g>
</g>
  <g id="id14:id14" transform="matrix(1.25,0,0,1.25,0.0,0.0)"><g transform="translate(0.000000,56.800000) scale(0.040000,-0.040000)" fill="#d60e52" stroke="none">
<path d="M765 1189 c-11 -16 -1 -19 13 -3 7 8 8 14 3 14 -5 0 -13 -5 -16 -11z"/>
<path d="M845 1180 c3 -5 18 -10 32 -10 32 0 28 5 -10 14 -19 4 -26 3 -22 -4z"/>
<path d="M801 1166 c2 -2 18 -6 34 -10 22 -5 26 -4 15 4 -14 9 -59 15 -49 6z"/>
<path d="M926 1151 c-12 -5 -15 -10 -9 -14 6 -4 16 0 23 8 14 17 13 17 -14 6z"/>
<path d="M950 1118 c0 -9 -5 -18 -12 -20 -7 -3 -8 -7 -3 -10 16 -9 34 17 24 33 -7 11 -9 11 -9 -3z"/>
<path d="M970 1068 c0 -10 -4 -18 -10 -18 -5 0 -6 -8 -3 -17 5 -14 8 -14 11 -2 3 7 9 16 13 19 4 3 4 12 -1 20 -8 13 -10 12 -10 -2z"/>
<path d="M990 1018 c0 -9 5 -20 10 -23 13 -8 13 5 0 25 -8 13 -10 13 -10 -2z"/>
<path d="M976 987 c3 -10 9 -15 12 -12 3 3 0 11 -7 18 -10 9 -11 8 -5 -6z"/>
<path d="M1004 965 c3 -8 1 -15 -4 -15 -5 0 -7 -7 -3 -16 5 -13 7 -13 14 -2 5 7 35 16 71 19 l63 6 -65 2 c-47 2 -59 5 -45 11 17 8 16 9 -9 9 -21 1 -27 -3 -22 -14z"/>
<path d="M1378 963 c18 -2 45 -2 60 0 15 2 0 4 -33 4 -33 0 -45 -2 -27 -4z"/>
<path d="M1368 943 c7 -3 16 -2 19 1 4 3 -2 6 -13 5 -11 0 -14 -3 -6 -6z"/>
<path d="M1488 943 c18 -2 45 -2 60 0 15 2 0 4 -33 4 -33 0 -45 -2 -27 -4z"/>
<path d="M1697 929 c7 -7 15 -10 18 -7 3 3 -2 9 -12 12 -14 6 -15 5 -6 -5z"/>
<path d="M1031 918 c-1 -10 -5 -18 -11 -18 -5 0 -7 -7 -3 -17 5 -14 8 -12 15 7 5 13 7 28 4 34 -2 6 -5 3 -5 -6z"/>
<path d="M1050 868 c0 -9 -4 -18 -10 -20 -5 -1 -6 -8 -2 -15 6 -9 11 -7 19 6 7 11 8 23 2 32 -7 11 -9 11 -9 -3z"/>
<path d="M1070 821 c0 -10 -4 -21 -10 -23 -6 -2 -6 -8 0 -18 8 -13 10 -12 10 3 0 9 5 17 10 17 6 0 10 6 10 14 0 8 -4 18 -10 21 -5 3 -10 -3 -10 -14z"/>
<path d="M1091 770 c-1 -8 -4 -26 -6 -40 -5 -22 -4 -23 5 -5 9 19 10 18 9 -5 -1 -14 -1 -34 0 -45 2 -18 3 -18 16 5 l14 25 1 -27 c0 -15 -4 -29 -10 -33 -5 -3 -6 -13 -3 -22 5 -13 8 -12 16 8 5 13 10 41 11 62 2 29 -1 37 -15 37 -10 0 -22 12 -27 28 -6 15 -11 20 -11 12z"/>
<path d="M1681 764 c0 -11 3 -14 6 -6 3 7 2 16 -1 19 -3 4 -6 -2 -5 -13z"/>
<path d="M1691 724 c0 -11 3 -14 6 -6 3 7 2 16 -1 19 -3 4 -6 -2 -5 -13z"/>
<path d="M1615 640 l-50 -7 47 -1 c26 -1 50 3 53 8 3 6 5 9 3 8 -2 0 -25 -4 -53 -8z"/>
<path d="M1151 616 c-1 -10 -13 -29 -27 -41 -25 -22 -25 -22 -5 -28 12 -3 19 -1 16 3 -3 5 5 14 17 21 22 12 22 11 8 -7 -14 -18 -14 -18 4 -4 10 8 42 18 70 22 l51 6 -53 -1 c-38 -2 -51 1 -47 11 2 6 -2 12 -9 12 -8 0 -17 6 -19 13 -3 6 -6 4 -6 -7z"/>
<path d="M1340 619 c-31 -6 -30 -6 18 -8 28 0 52 1 52 3 0 8 -37 11 -70 5z"/>
<path d="M1648 613 c7 -3 16 -2 19 1 4 3 -2 6 -13 5 -11 0 -14 -3 -6 -6z"/>
<path d="M1458 603 c12 -2 32 -2 45 0 12 2 2 4 -23 4 -25 0 -35 -2 -22 -4z"/>
<path d="M1052 518 c-17 -19 -18 -26 -9 -39 11 -15 14 -14 29 6 13 17 14 25 5 34 -8 8 -8 11 0 11 7 0 15 -5 18 -10 4 -6 11 -7 17 -4 6 4 5 10 -3 15 -22 14 -34 11 -57 -13z m15 -13 c0 -8 -7 -15 -15 -15 -12 0 -12 3 -2 15 7 8 13 15 15 15 1 0 2 -7 2 -15z"/>
<path d="M1060 421 c13 -9 13 -11 0 -11 -11 0 -9 -4 5 -12 11 -6 25 -17 32 -25 10 -13 12 -12 10 6 -1 11 -8 22 -17 23 -8 0 8 4 35 8 l50 7 -47 1 c-25 1 -55 5 -65 8 -15 5 -15 4 -3 -5z"/>
<path d="M1585 390 c3 -5 13 -10 22 -10 9 0 21 -8 28 -17 12 -16 12 -14 8 10 -4 22 -11 27 -35 27 -17 0 -27 -4 -23 -10z"/>
</g>
</g>
  <g id="id15:id15" transform="matrix(1.25,0,0,1.25,0.0,0.0)"><g transform="translate(0.000000,56.800000) scale(0.040000,-0.040000)" fill="#d20140" stroke="none">
<path d="M770 1181 c0 -8 22 -13 126 -27 37 -5 40 -8 36 -30 -2 -14 0 -24 7 -24 6 0 11 -11 11 -25 0 -14 5 -25 10 -25 6 0 10 -11 10 -24 0 -14 5 -28 10 -31 6 -3 10 -15 10 -26 0 -10 4 -19 8 -19 10 0 9 36 -1 46 -4 4 -7 18 -7 31 0 13 -4 23 -10 23 -5 0 -10 11 -10 25 0 14 -4 25 -10 25 -5 0 -10 9 -10 19 0 41 -11 51 -55 51 -24 0 -47 5 -50 10 -8 12 -75 13 -75 1z"/>
<path d="M1022 966 c3 -4 154 -11 335 -16 180 -5 336 -12 347 -16 14 -5 17 -3 14 7 -3 10 -23 14 -64 16 -470 12 -638 14 -632 9z"/>
<path d="M1010 920 c0 -11 5 -20 10 -20 6 0 10 9 10 20 0 11 -4 20 -10 20 -5 0 -10 -9 -10 -20z"/>
<path d="M1688 784 c-9 -75 -20 -140 -25 -144 -4 -5 -62 -11 -128 -15 -278 -14 -349 -21 -352 -30 -3 -10 57 -8 355 12 146 10 152 13 152 74 0 19 4 60 9 90 16 95 21 149 13 149 -4 0 -15 -61 -24 -136z"/>
<path d="M1037 903 c-11 -10 -8 -53 3 -53 6 0 10 14 10 30 0 31 -2 35 -13 23z"/>
<path d="M1058 844 c-12 -11 -10 -44 2 -44 6 0 10 -13 10 -30 0 -16 4 -30 9 -30 5 0 11 -8 14 -17 2 -10 2 2 -1 27 -3 25 -8 47 -12 50 -5 3 -10 16 -11 28 -2 13 -7 20 -11 16z"/>
<path d="M1117 687 c-11 -29 -9 -53 4 -40 6 6 9 21 7 34 -3 21 -4 22 -11 6z"/>
<path d="M1137 643 c-11 -10 -8 -53 3 -53 6 0 10 14 10 30 0 31 -2 35 -13 23z"/>
<path d="M1145 566 c-11 -7 -29 -16 -40 -18 -18 -4 -18 -6 -3 -12 12 -5 26 1 45 18 30 28 29 34 -2 12z"/>
<path d="M1051 506 c-29 -31 -27 -89 4 -94 12 -2 16 0 9 5 -17 12 -23 73 -7 73 7 0 12 6 11 13 -2 7 5 11 16 9 11 -2 15 1 11 7 -9 16 -19 13 -44 -13z"/>
<path d="M1100 399 c30 -12 600 -10 600 3 0 4 -141 8 -312 7 -217 0 -305 -3 -288 -10z"/>
<path d="M1070 380 c0 -5 7 -10 16 -10 8 0 12 5 9 10 -3 6 -10 10 -16 10 -5 0 -9 -4 -9 -10z"/>
<path d="M1598 373 c6 -2 18 -2 25 0 6 3 1 5 -13 5 -14 0 -19 -2 -12 -5z"/>
</g>
</g>
</svg>
